<svg width="60" height="60" viewBox="0 0 60 60" fill="none" xmlns="http://www.w3.org/2000/svg">
<circle cx="30" cy="39" r="20.3333" fill="white" stroke="#EAEAF5"/>
<path d="M42.0276 37.029L31.6305 37.0285C31.1714 37.0285 30.7993 37.4006 30.7993 37.8597V41.1811C30.7993 41.6402 31.1714 42.0123 31.6305 42.0123H37.4855C36.8444 43.6762 35.6477 45.0697 34.121 45.955L36.6176 50.2768C40.6224 47.9607 42.9901 43.8968 42.9901 39.3475C42.9901 38.6997 42.9423 38.2367 42.8469 37.7153C42.7743 37.3191 42.4304 37.029 42.0276 37.029Z" fill="#167EE6"/>
<path d="M30.2451 47.0028C27.3798 47.0028 24.8784 45.4373 23.5349 43.1206L19.2133 45.6116C21.4125 49.4232 25.5324 51.99 30.2451 51.99C32.557 51.99 34.7384 51.3675 36.6176 50.2828V50.2769L34.121 45.955C32.979 46.6173 31.6576 47.0028 30.2451 47.0028Z" fill="#12B347"/>
<path d="M36.6176 50.2828V50.2768L34.121 45.955C32.979 46.6173 31.6576 47.0028 30.2451 47.0028V51.99C32.5569 51.99 34.7385 51.3675 36.6176 50.2828Z" fill="#0F993E"/>
<path d="M22.4872 39.245C22.4872 37.8326 22.8727 36.5113 23.5349 35.3694L19.2132 32.8784C18.1225 34.7517 17.5001 36.9272 17.5001 39.245C17.5001 41.5628 18.1225 43.7383 19.2132 45.6116L23.5349 43.1206C22.8727 41.9787 22.4872 40.6573 22.4872 39.245Z" fill="#FFD500"/>
<path d="M30.2451 31.4872C32.1136 31.4872 33.8299 32.1511 35.1704 33.2555C35.5012 33.5279 35.9818 33.5083 36.2848 33.2053L38.6381 30.852C38.9818 30.5083 38.9574 29.9456 38.5902 29.6271C36.3441 27.6786 33.4217 26.5 30.2451 26.5C25.5324 26.5 21.4125 29.0668 19.2133 32.8784L23.5349 35.3694C24.8784 33.0527 27.3798 31.4872 30.2451 31.4872Z" fill="#FF4B26"/>
<path d="M35.1704 33.2555C35.5011 33.5279 35.9818 33.5083 36.2847 33.2053L38.6381 30.852C38.9818 30.5083 38.9573 29.9456 38.5901 29.6271C36.3441 27.6785 33.4217 26.5 30.2451 26.5V31.4872C32.1135 31.4872 33.8298 32.1511 35.1704 33.2555Z" fill="#D93F21"/>
</svg>
